# xmcd CD database file
#
# Track frame offsets:
#	150
#	21995
#	40600
#	56979
#	74943
#	86022
#	104711
#	121503
#	143050
#
# Disc length: 2297 seconds
#
# Revision: 0
# Processed by: cddbd v1.5.1PL2 Copyright (c) Steve Scherf et al.
# Submitted via: CDex 1.51
#
DISCID=8308f709
DTITLE=Lisa Mills - I'm Changing
DYEAR=2005
DGENRE=Blues
TTITLE0=Shake It
TTITLE1=The Truth
TTITLE2=Better Than This (I don't need you anymore)
TTITLE3=I'm Changing
TTITLE4=Tell Me
TTITLE5=Take My Troubles
TTITLE6=I Need a Little Sunshine
TTITLE7=Whish I was in Heaven (sittin' down)
TTITLE8=Little Wing
EXTD=YEAR: 2005
EXTT0=
EXTT1=
EXTT2=
EXTT3=
EXTT4=
EXTT5=
EXTT6=
EXTT7=
EXTT8=
PLAYORDER=
